Coordinates
version=1
nRows=34
nColumns=33
inDegrees=yes

Units are S.I. units (second, meters, Newtons, ...)
Angles are in degrees.

endheader
time	ground_thorax_rot_x	ground_thorax_rot_y	ground_thorax_rot_z	ground_thorax_tx	ground_thorax_ty	ground_thorax_tz	clav_prot_r	clav_elev_r	scapula_abduction_r	scapula_elevation_r	scapula_upward_rot_r	scapula_winging_r	shoulder_elv_r	plane_of_elev_r	axial_rot_r	elbow_flexion_r	pro_sup_r	wrist_flex_r	wrist_dev_r	clav_prot_l	clav_elev_l	scapula_abduction_l	scapula_elevation_l	scapula_upward_rot_l	scapula_winging_l	shoulder_elv_l	plane_of_elev_l	axial_rot_l	elbow_flexion_l	pro_sup_l	wrist_flex_l	wrist_dev_l	
5.7700	36.694456	10.520593	15.222414	-233.259910	822.842273	0.519427	15.644639	37.622072	38.797629	45.000000	-45.000000	2792.395079	-2448.498615	31.754788	58.252785	1464.786336	147.541121	13.596263	4.387757	10.597793	-45.000000	-37.455223	45.000000	-45.023248	-2780.809380	-452.703567	136.059311	-173.998147	2166.057238	34.954475	6.544137	-24.453740	
5.7800	36.686092	10.564986	15.317421	-233.040182	822.191511	0.514299	15.614824	37.690075	38.722785	45.000000	-45.000000	2792.431073	-2448.562106	31.772848	58.287269	1464.860098	147.717646	13.465985	4.364556	10.562518	-45.000000	-37.401151	45.000000	-45.003967	-2780.859804	-452.780276	136.069734	-174.030581	2166.164556	36.067759	6.277502	-24.391440	
5.7900	36.677390	10.602063	15.407285	-232.767996	821.544655	0.504463	15.558047	37.795764	38.655359	45.000000	-45.000000	2792.465455	-2448.627469	31.814795	58.293356	1464.919809	147.937513	13.304156	4.316995	10.518991	-45.000000	-37.370077	45.000000	-44.955008	-2780.900048	-452.868428	136.080331	-174.056396	2166.271235	37.124948	6.035353	-24.304228	
5.8000	36.669576	10.662978	15.498231	-232.374774	820.905443	0.485184	15.513996	37.829489	38.580737	45.000000	-45.000000	2792.533518	-2448.667557	31.838323	58.240531	1464.983946	148.251203	13.209719	4.335582	10.516041	-45.000000	-37.347730	45.000000	-44.941320	-2780.950289	-452.938857	136.084473	-174.058825	2166.375534	38.017570	5.797844	-24.251044	
5.8100	36.661974	10.741259	15.589871	-231.865817	820.276420	0.455435	15.468922	37.832311	38.499132	45.000000	-45.000000	2792.623048	-2448.688042	31.863360	58.129931	1465.047926	148.658026	13.143125	4.384382	10.534345	-45.000000	-37.341243	45.000000	-44.942732	-2781.005612	-452.998952	136.086240	-174.041110	2166.476436	38.764700	5.577132	-24.207165	
5.8200	36.656562	10.831920	15.677318	-231.240469	819.661536	0.413981	15.415061	37.811509	38.421994	45.000000	-44.999999	2792.729447	-2448.692600	31.887462	57.962107	1465.107983	149.162202	13.099453	4.457926	10.571678	-45.000000	-37.349205	45.000000	-44.950769	-2781.062983	-453.050292	136.082105	-174.004128	2166.572022	39.366249	5.377135	-24.168612	
5.8300	36.657574	10.922656	15.756522	-230.519566	819.064831	0.361075	15.367426	37.783507	38.362805	45.000000	-44.999999	2792.841289	-2448.692308	31.914520	57.754605	1465.159848	149.751341	13.068437	4.542847	10.611970	-45.000000	-37.356870	45.000000	-44.962470	-2781.125752	-453.094731	136.074315	-173.953530	2166.662783	39.849958	5.198240	-24.130352	
5.8400	36.667891	10.996462	15.819544	-229.733192	818.491297	0.298014	15.323450	37.766685	38.345135	45.000000	-44.999998	2792.945875	-2448.701433	31.942651	57.528835	1465.194348	150.408493	13.038893	4.625675	10.643186	-45.000000	-37.354549	45.000000	-44.963258	-2781.189845	-453.135447	136.058785	-173.895859	2166.747311	40.249856	5.041355	-24.085561	
5.8500	36.686358	11.054053	15.868510	-228.908604	817.946642	0.226489	15.307751	37.758695	38.361352	45.000000	-44.999996	2793.042339	-2448.727636	31.969043	57.307968	1465.221189	151.110905	13.015981	4.709942	10.657025	-45.000000	-37.332711	45.000000	-44.960656	-2781.260826	-453.173411	136.043063	-173.835393	2166.826005	40.585589	4.900828	-24.040050	
5.8600	36.711333	11.084717	15.900267	-228.068698	817.438452	0.148421	15.314612	37.764242	38.423586	45.000000	-44.999992	2793.119147	-2448.775682	31.996903	57.101219	1465.229357	151.847747	12.998598	4.793246	10.653128	-45.000000	-37.286907	45.000000	-44.945454	-2781.336270	-453.202088	136.021337	-173.777583	2166.895300	40.871129	4.776313	-23.992345	
5.8700	36.734118	11.103019	15.928919	-227.229107	816.975664	0.065632	15.342887	37.776707	38.501499	45.000000	-44.999987	2793.188103	-2448.823905	32.025159	56.914799	1465.234440	152.598657	12.983126	4.875318	10.636204	-45.000000	-37.237799	45.000000	-44.929005	-2781.411413	-453.225281	136.003851	-173.725671	2166.961048	41.107225	4.665737	-23.944141	
5.8800	36.750545	11.105755	15.951895	-226.397221	816.568890	-0.020286	15.382268	37.794766	38.595576	45.000000	-44.999976	2793.240735	-2448.872262	32.060954	56.740484	1465.229415	153.356895	12.967863	4.953788	10.613940	-45.000000	-37.188685	45.000000	-44.906912	-2781.488063	-453.230808	135.986599	-173.684066	2167.018528	41.289989	4.569021	-23.893336	
5.8900	36.753319	11.107901	15.978321	-225.571603	816.229263	-0.108065	15.423723	37.810904	38.675104	45.000000	-44.999957	2793.291628	-2448.906717	32.103254	56.567537	1465.232230	154.111986	12.946621	5.027298	10.595308	-45.000000	-37.159643	45.000000	-44.880853	-2781.560371	-453.226723	135.978138	-173.655755	2167.071517	41.406563	4.487062	-23.840297	
5.9000	36.745290	11.097214	15.996710	-224.743218	815.967556	-0.196748	15.459924	37.825522	38.757910	45.000000	-44.999923	2793.328690	-2448.934706	32.156963	56.376305	1465.229605	154.875034	12.919122	5.092692	10.586574	-45.000000	-37.143264	45.000000	-44.836362	-2781.631836	-453.204529	135.969436	-173.647452	2167.117299	41.449401	4.421065	-23.784469	
5.9100	36.728161	11.076004	16.007801	-223.897032	815.792229	-0.285725	15.488937	37.834966	38.836202	45.000000	-44.999862	2793.364022	-2448.945430	32.218764	56.155595	1465.232843	155.655523	12.881878	5.147364	10.587968	-45.000000	-37.148908	45.000000	-44.766647	-2781.696909	-453.181706	135.966555	-173.663948	2167.164804	41.407546	4.372104	-23.727986	
5.9200	36.707600	11.032349	15.998481	-223.014383	815.708004	-0.374804	15.519191	37.844541	38.929971	45.000000	-44.999752	2793.384347	-2448.955371	32.296525	55.893212	1465.232618	156.473993	12.835970	5.188641	10.595871	-45.000000	-37.163032	45.000000	-44.657032	-2781.764061	-453.150704	135.965552	-173.710340	2167.212656	41.277364	4.340110	-23.670239	
5.9300	36.681184	10.983518	15.982818	-222.075899	815.715039	-0.464137	15.535127	37.846582	39.019657	45.000000	-44.999556	2793.414371	-2448.946945	32.374913	55.579508	1465.242634	157.337240	12.777812	5.218866	10.614198	-45.000000	-37.205376	45.000000	-44.513533	-2781.819982	-453.130451	135.970015	-173.785918	2167.269135	41.058221	4.326121	-23.613960	
5.9400	36.655438	10.919889	15.951540	-221.062995	815.808751	-0.554104	15.557204	37.851684	39.126613	45.000000	-44.999204	2793.433956	-2448.932153	32.465283	55.214747	1465.253418	158.254355	12.711389	5.235013	10.631704	-45.000000	-37.260200	45.000000	-44.323019	-2781.878006	-453.107532	135.977650	-173.886392	2167.330979	40.752082	4.328952	-23.557831	
5.9500	36.634531	10.846714	15.909780	-219.958775	815.980228	-0.644967	15.593824	37.862940	39.247645	45.000000	-44.998575	2793.448182	-2448.904333	32.566258	54.807525	1465.265666	159.225362	12.638135	5.238387	10.637419	-45.000000	-37.331318	45.000000	-44.087453	-2781.938357	-453.092300	135.992623	-174.004295	2167.399616	40.358212	4.350192	-23.503532	
5.9600	36.623684	10.758268	15.849749	-218.748312	816.217104	-0.736441	15.659440	37.888455	39.395877	45.000000	-44.997446	2793.444892	-2448.879567	32.685576	54.369453	1465.274146	160.248669	12.561572	5.228462	10.624941	-45.000000	-37.406981	45.000000	-43.800021	-2782.011792	-453.073173	136.013520	-174.131297	2167.471140	39.876629	4.390817	-23.450864	
5.9700	36.621057	10.668283	15.785492	-217.418695	816.505104	-0.827248	15.735522	37.920473	39.558509	45.000000	-44.995427	2793.442636	-2448.849761	32.809606	53.905566	1465.278200	161.314600	12.481426	5.211334	10.602964	-45.000000	-37.499143	45.000000	-43.471501	-2782.088305	-453.059173	136.037202	-174.257262	2167.543178	39.313145	4.454993	-23.402716	
5.9800	36.627768	10.576696	15.713429	-215.958642	816.829109	-0.914965	15.817804	37.956208	39.739174	45.000000	-44.991803	2793.437543	-2448.822645	32.939571	53.425100	1465.278914	162.411898	12.399119	5.188318	10.577901	-45.000000	-37.600903	45.000000	-43.096939	-2782.169670	-453.041532	136.056951	-174.373133	2167.615700	38.673967	4.544562	-23.360689	
5.9900	36.644336	10.492651	15.640698	-214.358551	817.174259	-0.996141	15.894998	37.989457	39.927723	45.000000	-44.985333	2793.438554	-2448.792301	33.069977	52.935529	1465.272767	163.530542	12.314392	5.164383	10.555467	-45.000000	-37.718031	45.000000	-42.685222	-2782.251938	-453.028079	136.069639	-174.471414	2167.684957	37.967969	4.663009	-23.326392	
6.0000	36.669242	10.417776	15.563379	-212.611085	817.526436	-1.066730	15.973734	38.026700	40.125153	45.000000	-44.973681	2793.448363	-2448.759459	33.193866	52.451797	1465.263681	164.665498	12.226054	5.140884	10.533548	-45.000000	-37.859708	45.000000	-42.222840	-2782.336512	-453.018160	136.080926	-174.543582	2167.757404	37.197273	4.811722	-23.301609	
6.0100	36.701256	10.360558	15.487134	-210.710842	817.872653	-1.122775	16.049031	38.068487	40.322339	45.000000	-44.952983	2793.477505	-2448.716569	33.300430	51.985968	1465.251077	165.814539	12.132311	5.121298	10.513690	-45.000000	-38.036652	45.000000	-41.711389	-2782.420297	-453.020987	136.093344	-174.585414	2167.831733	36.365128	4.993162	-23.285944	
6.0200	36.743120	10.308083	15.399220	-208.654308	818.201017	-1.161052	16.137686	38.124369	40.530424	45.000000	-44.915420	2793.511481	-2448.678589	33.399773	51.557155	1465.232616	166.985880	12.034364	5.102624	10.485454	-45.000000	-38.234165	45.000000	-41.135999	-2782.513651	-453.033179	136.109498	-174.596339	2167.907187	35.472039	5.206823	-23.276498	
6.0300	36.796145	10.258894	15.301501	-206.439194	818.500585	-1.179593	16.232182	38.194169	40.744817	45.000000	-44.849495	2793.547047	-2448.646178	33.496283	51.180321	1465.202697	168.188708	11.932637	5.083490	10.449100	-45.000000	-38.444600	45.000000	-40.503789	-2782.618982	-453.056123	136.127667	-174.580390	2167.977982	34.524389	5.451076	-23.267939	
6.0400	36.858702	10.206994	15.185459	-204.064120	818.760996	-1.177877	16.329181	38.283891	40.961457	45.000000	-44.727604	2793.582897	-2448.628301	33.586040	50.867563	1465.162453	169.428952	11.826697	5.058732	10.405238	-45.000000	-38.670142	45.000000	-39.809925	-2782.739883	-453.091317	136.148964	-174.539690	2168.045624	33.532510	5.721905	-23.256087	
6.0500	36.930077	10.151537	15.052731	-201.527423	818.972117	-1.157009	16.409456	38.387799	41.170495	45.000000	-44.519872	2793.623254	-2448.628418	33.662215	50.616702	1465.109988	170.703337	11.716267	5.025179	10.363698	-45.000000	-38.904775	45.000000	-39.066364	-2782.874174	-453.136640	136.165120	-174.480525	2168.106917	32.516734	6.014674	-23.235964	
6.0600	37.009147	10.086347	14.897156	-198.827084	819.123848	-1.119298	16.473981	38.506642	41.371010	45.000000	-44.201595	2793.668240	-2448.656615	33.718046	50.417324	1465.045117	172.002960	11.600965	4.979471	10.324682	-45.000000	-39.147796	45.000000	-38.270343	-2783.021749	-453.193419	136.174034	-174.408099	2168.161432	31.500618	6.325139	-23.204874	
6.0700	37.096015	10.011047	14.719942	-195.960113	819.205604	-1.068432	16.522729	38.640625	41.563126	45.000000	-43.764873	2793.719903	-2448.715678	33.749137	50.251322	1464.965440	173.310788	11.480850	4.917185	10.286959	-45.000000	-39.396002	45.000000	-37.426476	-2783.182836	-453.262685	136.175060	-174.327950	2168.210075	30.509410	6.646714	-23.159975	
6.0800	37.191422	9.920116	14.512891	-192.924226	819.207176	-1.007717	16.581494	38.797311	41.756562	45.000000	-43.218302	2793.778148	-2448.810072	33.752886	50.092279	1464.871164	174.612112	11.355952	4.834626	10.237262	-45.000000	-39.653332	45.000000	-36.521260	-2783.361977	-453.350139	136.175172	-174.244247	2168.253913	29.562631	6.976440	-23.101440	
6.0900	37.291785	9.818627	14.285820	-189.719079	819.119475	-0.938690	16.647973	38.969904	41.952343	45.000000	-42.590059	2793.847747	-2448.933743	33.734381	49.910510	1464.763492	175.886848	11.226616	4.730452	10.178104	-45.000000	-39.918427	45.000000	-35.565920	-2783.555743	-453.455372	136.176132	-174.162406	2168.294681	28.680975	7.307966	-23.028297	
6.1000	37.394335	9.708734	14.044485	-186.349537	818.936367	-0.858440	16.724600	39.151277	42.156633	45.000000	-41.916905	2793.929326	-2449.079119	33.701820	49.691140	1464.644798	177.120151	11.094047	4.608344	10.110420	-45.000000	-40.192633	45.000000	-34.565659	-2783.760463	-453.579322	136.177544	-174.082559	2168.329520	27.884456	7.637933	-22.940878	
